# Blender 3.5.1
# www.blender.org
mtllib antenna-right.mtl
o Ant_obj
v -55.890503 34.451214 -8.803071
v -65.799034 46.446987 -16.328619
v -64.518799 47.361431 -16.546803
v -64.687340 47.947262 -15.080120
v -65.967606 47.032646 -14.861926
v -64.872627 46.944931 -15.921362
v -64.949638 47.634396 -16.205708
v -65.122711 47.896053 -15.524580
v -65.045708 47.206474 -15.240228
v -77.970367 44.363441 -18.382311
v -78.195381 44.703445 -17.496838
v -78.536186 45.523739 -17.898417
v -78.311172 45.183735 -18.783892
v -90.183983 38.621994 -19.442383
v -90.476494 39.063999 -18.291265
v -91.202271 39.958702 -18.819244
v -90.909752 39.516697 -19.970362
v -100.655945 30.128391 -19.051392
v -101.036217 30.702999 -17.554941
v -102.282982 31.563658 -18.202240
v -101.902702 30.989052 -19.698692
v -108.648438 19.487885 -17.268745
v -109.142784 20.234873 -15.323359
v -111.047356 20.884295 -16.056704
v -110.553001 20.137306 -18.002090
v -55.775539 34.697475 -10.000834
v -55.213512 35.098862 -10.096613
v -55.288452 35.250423 -9.445814
v -55.849792 34.876690 -9.351456
v -57.377533 34.853207 -11.347978
v -55.176800 36.425076 -11.723034
v -55.469612 37.336117 -9.196511
v -57.667969 35.790810 -8.821558
v -57.673218 36.263966 -11.327134
v -56.392982 37.178356 -11.545315
v -56.565216 37.671917 -10.073214
v -57.843586 36.782990 -9.855776
v -55.741833 34.011066 -10.105704
v -54.609772 34.819614 -10.298633
v -54.759487 35.231731 -8.995024
vn 0.4107 -0.7112 -0.5706
vn 0.9930 0.0779 0.0889
vn 0.2319 -0.0968 0.9679
vn -0.9776 -0.2074 -0.0371
vn -0.1555 -0.0180 -0.9877
vn 0.4725 0.8473 -0.2427
vn -0.3401 0.6510 0.6786
vn -0.8054 -0.5794 0.1249
vn -0.9941 -0.0346 -0.1025
vn 0.1061 -0.3689 -0.9234
vn 0.8052 0.5808 -0.1200
vn -0.1029 0.3691 0.9237
vn -0.3949 -0.8868 0.2402
vn -0.8081 0.5851 -0.0676
vn 0.2705 0.9094 -0.3158
vn -0.7896 0.4678 -0.3972
vn -0.3090 0.8669 -0.3911
vn 0.1095 -0.9183 0.3804
vn -0.2230 0.3514 0.9093
vn -0.0960 0.9208 -0.3780
vn 0.2386 -0.3462 -0.9073
vn 0.3580 -0.8376 0.4126
vn -0.2217 0.3545 0.9084
vn -0.3414 0.8451 -0.4113
vn 0.2399 -0.3430 -0.9082
vn 0.5821 -0.6985 0.4161
vn -0.2211 0.3588 0.9069
vn -0.5635 0.7131 -0.4170
vn 0.2405 -0.3387 -0.9096
vn 0.7663 -0.5101 0.3906
vn -0.2218 0.3642 0.9045
vn -0.7475 0.5341 -0.3950
vn 0.2398 -0.3333 -0.9118
vn -0.2584 0.1335 -0.9568
vn 0.2950 0.9266 -0.2333
vn -0.4143 0.7392 0.5310
vn -0.3463 -0.8967 0.2756
vt 0.534824 0.031771
vt 0.553950 0.025357
vt 0.554216 0.035213
vt 0.554542 0.027669
vt 0.554729 0.030693
vt 0.554432 0.032950
vt 0.556162 0.035605
vt 0.555490 0.025572
vt 0.555959 0.028016
vt 0.556234 0.030425
vt 0.556036 0.032993
vt 0.623421 0.035326
vt 0.622350 0.017589
vt 0.623251 0.030788
vt 0.623616 0.026359
vt 0.623313 0.021929
vt 0.682683 0.031595
vt 0.681651 0.014364
vt 0.682307 0.027161
vt 0.682710 0.022878
vt 0.682482 0.018589
vt 0.718275 0.026269
vt 0.717604 0.015436
vt 0.717706 0.023461
vt 0.717976 0.020792
vt 0.717929 0.018124
vt 0.728960 0.020271
vt 0.728422 0.020299
vt 0.728564 0.020220
vt 0.728744 0.020180
vt 0.534720 0.029829
vt 0.534787 0.032314
vt 0.535079 0.030356
vt 0.535207 0.031165
vt 0.535053 0.031784
vt 0.536483 0.029419
vt 0.536568 0.032580
vt 0.536863 0.030110
vt 0.536997 0.031122
vt 0.536830 0.031891
vt 0.537960 0.032787
vt 0.537860 0.029099
vt 0.538257 0.029917
vt 0.538395 0.031088
vt 0.538218 0.031975
vt 0.534557 0.032280
vt 0.534493 0.029881
vt 0.534849 0.030388
vt 0.534976 0.031171
s 0
usemtl Ant
f 31/38/1 27/33/1 26/31/1 30/36/1
f 32/39/2 28/34/2 27/33/2 31/38/2
f 33/40/3 29/35/3 28/34/3 32/39/3
f 33/40/4 37/45/4 34/41/4 30/37/4
f 35/43/5 31/38/5 30/36/5 34/42/5
f 36/44/6 32/39/6 31/38/6 35/43/6
f 37/45/7 33/40/7 32/39/7 36/44/7
f 37/45/8 5/6/8 2/3/8 34/41/8
f 1/1/9 29/35/9 26/32/9 38/46/9
f 34/42/10 2/2/10 3/4/10 35/43/10
f 35/43/11 3/4/11 4/5/11 36/44/11
f 36/44/12 4/5/12 5/6/12 37/45/12
f 23/28/13 24/29/13 25/30/13 22/27/13
f 6/8/14 7/9/14 3/4/14 2/2/14
f 7/9/15 8/10/15 4/5/15 3/4/15
f 8/10/16 9/11/16 5/6/16 4/5/16
f 9/11/17 6/7/17 2/3/17 5/6/17
f 11/14/18 10/12/18 6/7/18 9/11/18
f 12/15/19 11/14/19 9/11/19 8/10/19
f 13/16/20 12/15/20 8/10/20 7/9/20
f 10/13/21 13/16/21 7/9/21 6/8/21
f 15/19/22 14/17/22 10/12/22 11/14/22
f 16/20/23 15/19/23 11/14/23 12/15/23
f 17/21/24 16/20/24 12/15/24 13/16/24
f 14/18/25 17/21/25 13/16/25 10/13/25
f 19/24/26 18/22/26 14/17/26 15/19/26
f 20/25/27 19/24/27 15/19/27 16/20/27
f 21/26/28 20/25/28 16/20/28 17/21/28
f 18/23/29 21/26/29 17/21/29 14/18/29
f 23/28/30 22/27/30 18/22/30 19/24/30
f 24/29/31 23/28/31 19/24/31 20/25/31
f 25/30/32 24/29/32 20/25/32 21/26/32
f 22/27/33 25/30/33 21/26/33 18/23/33
f 27/33/34 39/48/34 38/47/34 26/31/34
f 28/34/35 40/49/35 39/48/35 27/33/35
f 29/35/36 1/1/36 40/49/36 28/34/36
f 29/35/37 33/40/37 30/37/37 26/32/37
